<?xml version="1.0" standalone="no"?><!DOCTYPE svg PUBLIC "-//W3C//DTD SVG 1.1//EN" "http://www.w3.org/Graphics/SVG/1.1/DTD/svg11.dtd"><svg width="100%" height="100%" viewBox="0 0 48 48" version="1.1" xmlns="http://www.w3.org/2000/svg" xmlns:xlink="http://www.w3.org/1999/xlink" xml:space="preserve" style="fill-rule:evenodd;clip-rule:evenodd;stroke-linejoin:round;stroke-miterlimit:1.41421;"><g><path d="M15,17.978c-2.802,-0.253 -5,-2.611 -5,-5.478c0,-3.036 2.464,-5.5 5.5,-5.5l18,0c3.036,0 5.5,2.464 5.5,5.5c0,3.036 -2.464,5.5 -5.5,5.5c-0.169,0 -0.335,-0.008 -0.5,-0.022l0,19.022l2,0l0,-4l4,0l0,8l-30,0l0,-8l4,0l0,4l2,0l0,-19.022ZM33.5,14l0,0c0.828,0 1.5,-0.672 1.5,-1.5c0,-0.828 -0.672,-1.5 -1.5,-1.5l-18,0c-0.828,0 -1.5,0.672 -1.5,1.5c0,0.828 0.672,1.5 1.5,1.5l0,0l3.5,0l0,23l2,0l0,-23l2,0l0,23l2,0l0,-23l2,0l0,23l2,0l0,-23l4.5,0Z" style="fill:#dadada;"/></g></svg>