<?xml version="1.0" standalone="no"?><!DOCTYPE svg PUBLIC "-//W3C//DTD SVG 1.1//EN" "http://www.w3.org/Graphics/SVG/1.1/DTD/svg11.dtd"><svg width="100%" height="100%" viewBox="0 0 64 64" version="1.1" xmlns="http://www.w3.org/2000/svg" xmlns:xlink="http://www.w3.org/1999/xlink" xml:space="preserve" style="fill-rule:evenodd;clip-rule:evenodd;stroke-linejoin:round;stroke-miterlimit:1.41421;"><g><path d="M20,18l-4,0l0,32l32,0l0,-32l-4,0l0,-4l8,0l0,40l-40,0l0,-40l8,0l0,4ZM43.414,30.13l-13.556,13.556l-7.272,-7.272l2.828,-2.828l4.444,4.443l10.728,-10.728l2.828,2.829ZM42,22l-20,0l0,-12l20,0l0,12ZM38,14l-12,0l0,4l12,0l0,-4Z" style="fill:#dadada;"/></g></svg>