<svg width="50px" height="50px" viewBox="20 25 50 50" version="1.1" xmlns="http://www.w3.org/2000/svg" xmlns:xlink="http://www.w3.org/1999/xlink">
    <desc>Created with Sketch.</desc>
    <defs></defs>
    <g id="iconï¼tupian" stroke="none" stroke-width="1" fill="none" fill-rule="evenodd" transform="translate(20.000000, 25.000000)">
        <path d="M38,16 C38,18.3866236 36.2094456,20 34,20 C31.7905544,20 30,18.2094456 30,16 C30,13.7905544 31.7905544,12 34,12 C36.2094456,12 38,13.7905544 38,16 L38,16 Z" id="Stroke-1" stroke="#5C6066" stroke-width="2"></path>
        <path d="M25,0 C11.193,0 0,11.193 0,25 C0,38.807 11.193,50 25,50 C38.807,50 50,38.807 50,25 C50,11.193 38.807,0 25,0 M25,2 C37.682,2 48,12.318 48,25 C48,37.682 37.682,48 25,48 C12.318,48 2,37.682 2,25 C2,12.318 12.318,2 25,2" id="Fill-3" fill="#5C6066"></path>
        <polyline id="Stroke-5" stroke="#5C6066" stroke-width="2" stroke-linecap="round" stroke-linejoin="round" points="10 33.7997947 19.0586527 24 32 38"></polyline>
        <polyline id="Stroke-7" stroke="#5C6066" stroke-width="2" stroke-linecap="round" stroke-linejoin="round" points="26 31.5996089 31.7648871 26 40 34"></polyline>
    </g>
</svg>